<?xml version="1.0" encoding="UTF-8"?>
<svg width="495px" height="381px" viewBox="0 0 495 381" version="1.1" xmlns="http://www.w3.org/2000/svg" xmlns:xlink="http://www.w3.org/1999/xlink">
    <!-- Generator: Sketch 55 (78076) - https://sketchapp.com -->
    <title>tangan 1</title>
    <desc>Created with Sketch.</desc>
    <g id="Page-1" stroke="none" stroke-width="1" fill="none" fill-rule="evenodd">
        <g id="home" transform="translate(0.000000, -1386.000000)" fill-rule="nonzero">
            <g id="tangan-1" transform="translate(-18.000000, 1386.000000)">
                <path d="M332.850318,175.970339 C332.850318,175.970339 242.80678,288.615572 199.831271,333.076335 C156.855763,377.537097 142.47947,394.722458 1.99379237,361.974216 L12.1887712,205.610847 L124.672564,231.360636 C311.136547,74.5855932 320.822987,74.5855932 320.822987,74.5855932 C314.36536,75.3443644 311.830742,98.6483263 315.172564,126.634068 C318.514386,154.619809 326.392691,176.680678 332.842246,175.929979" id="Path" fill="#F8C44D"></path>
                <path d="M339.945636,143.682203 C333.486901,148.480873 327.502437,153.886893 322.074153,159.826271 C325.456335,170.085826 329.338983,176.349725 332.850318,175.970339 C337.685466,175.356864 340.325021,162.110657 339.945636,143.682203 Z" id="Path" fill="#00267C"></path>
                <path d="M472.076758,36.5905297 C457.668178,36.2434322 404.005297,38.9152754 395.779894,39.3350212 C394.122625,41.5945805 392.653948,43.9865797 391.388708,46.4868432 C410.002818,47.2940466 457.28072,39.8516314 492.676589,43.4113983 C492.127691,39.0282839 484.322034,36.8811229 472.076758,36.5905297 Z" id="Path" fill="#FFE8BB"></path>
                <path d="M329.887881,69.6697246 C347.501059,60.6694068 362.442394,47.3424788 377.876123,34.9599788 C389.580572,25.5722034 402.479682,10.3967797 417.283792,6.2154661 C417.041631,2.4054661 413.360784,0.774915254 407.266398,3.66470339 C397.135996,8.50792373 363.758136,33.7895339 340.115148,57.8280508 C335.003007,63.1292507 329.513073,68.0526561 323.688559,72.5595127 C325.787288,71.6877331 327.861801,70.7110169 329.887881,69.6697246 Z" id="Path" fill="#FFE8BB"></path>
                <path d="M319.902775,77.3543008 C321.410908,76.4556904 322.861327,75.463582 324.24553,74.3837924 C328.560665,71.1327516 332.679248,67.628722 336.579597,63.8901483 C341.745699,58.9823517 346.66964,53.824322 351.916462,48.9649576 C357.163284,44.1055932 362.240593,39.5529661 367.576208,35.0326271 C376.79447,27.2269703 386.271038,19.6957627 396.167352,12.7538136 C399.396165,10.5017161 402.624979,8.27383475 406.079809,6.34461864 C407.689562,5.36889344 409.436344,4.63970729 411.262055,4.18131356 C412.10381,3.97531977 412.981147,3.96152515 413.828962,4.14095339 C414.373416,4.24339284 414.847142,4.57588429 415.128559,5.05309322 L415.241568,5.2629661 C415.37072,5.51319915 415.152775,5.00466102 415.241568,5.2629661 C415.30758,5.44761255 415.361508,5.63635875 415.403008,5.82800847 C415.435748,5.93902102 415.460034,6.05235355 415.475657,6.1670339 C415.475657,6.07824153 415.475657,5.85222458 415.475657,6.22353814 C415.475657,6.59485169 415.475657,6.73207627 415.475657,6.99038136 C415.376627,8.06522567 415.089755,9.11435524 414.628093,10.0900424 C413.207415,13.2300636 410.793877,15.7888983 408.533708,18.339661 C404.029513,23.4088983 399.162076,28.2521186 395.529661,34.0397669 C394.635901,35.4679771 393.82729,36.9477367 393.108051,38.4713136 C392.559153,39.6336864 393.196843,41.2803814 394.674025,41.2077331 C399.807839,40.9440466 404.938962,40.6938136 410.067394,40.4570339 C420.700953,39.9511864 431.329131,39.4937712 441.951928,39.0847881 C451.202479,38.7296186 460.517606,38.342161 469.743941,38.3825212 C475.467013,38.3825212 481.577542,38.5197458 487.026165,40.48125 C487.953763,40.8221217 488.835075,41.2776926 489.649576,41.8373517 C489.552712,41.7647034 489.964386,42.1118008 490.037034,42.1925212 C490.109682,42.2732415 490.303411,42.4669703 490.424492,42.6122669 C490.133898,42.2651695 490.521356,42.7737076 490.569788,42.8625 C490.61822,42.9512924 490.674725,43.0562288 490.723157,43.1530932 C490.594004,42.8947881 490.682797,42.9835805 490.723157,43.2015254 C490.763517,43.4194703 490.811949,43.5324788 490.852309,43.7100636 C490.747373,43.2176695 490.852309,43.7988559 490.852309,43.9522246 C490.852309,44.1055932 490.755445,44.6867797 490.852309,44.2428178 C490.803877,44.4849788 490.739301,44.7352119 490.666653,44.9773729 L490.561716,45.2760381 C490.384131,45.7684322 490.650508,45.0903814 490.513284,45.3890466 C490.399739,45.6377369 490.2731,45.8802377 490.133898,46.1155297 C490.02089,46.3173305 489.891737,46.5191314 489.762585,46.7128602 C489.54464,47.0518856 489.956314,46.4949153 489.762585,46.7128602 L489.496208,47.0034534 C489.350911,47.14875 489.197542,47.2859746 489.044174,47.4231992 C488.890805,47.5604237 488.777797,47.625 489.044174,47.4231992 L488.802013,47.5927119 C488.347464,47.8893844 487.875772,48.1589224 487.389407,48.3999153 C486.408837,48.8835695 485.387877,49.2806094 484.338178,49.5865042 C481.331964,50.494858 478.264916,51.1881134 475.160275,51.6610169 C467.451483,52.9121822 459.637754,53.5579449 451.872458,54.3086441 C449.894809,54.4943008 447.917161,54.6961017 445.939513,54.8979025 C445.046163,54.9224417 444.302117,55.59054 444.181904,56.4761052 C444.061692,57.3616704 444.60071,58.2039403 445.455191,58.4657415 C445.786144,58.586822 445.100021,58.2639407 445.245318,58.3769492 C445.415305,58.4726795 445.590467,58.5589135 445.77,58.6352542 C445.987945,58.7563347 446.20589,58.8935593 446.407691,59.0307839 C446.464195,59.0307839 446.900085,59.3940254 446.68214,59.2245127 C446.464195,59.055 446.956589,59.4586017 447.029237,59.53125 C447.318428,59.8054159 447.58815,60.0994127 447.836441,60.4111017 L447.836441,60.4111017 C447.902859,60.4938535 447.964832,60.5800768 448.022097,60.6694068 C448.175466,60.9115678 448.320763,61.1375847 448.457987,61.3878178 C448.900264,62.265491 449.174062,63.2183077 449.265191,64.1968856 C449.523496,66.8768008 448.950381,70.0571822 447.150318,72.0025424 C445.486151,73.6550339 443.400524,74.8192998 441.120508,75.3685805 C439.920057,75.705292 438.698463,75.9614762 437.463877,76.1354237 C437.867479,76.0789195 437.140996,76.1354237 437.036059,76.1757839 L436.438729,76.2322881 C436.083559,76.2322881 435.72839,76.2887924 435.37322,76.2968644 C434.569065,76.3275842 433.87812,76.8772049 433.667317,77.6538465 C433.456514,78.4304882 433.774744,79.2540278 434.453008,79.6871186 C437.162428,81.5817289 437.938943,85.2525281 436.228856,88.0820339 C434.38036,91.2704873 430.231335,91.6579449 426.784576,91.9646822 C426.142061,91.9855504 425.556064,92.3373172 425.235527,92.8945586 C424.91499,93.4517999 424.905534,94.1352047 425.21053,94.7011017 C425.065233,94.3620763 425.016801,94.1764195 425.145953,94.5638771 C425.232055,94.8221822 425.312775,95.09125 425.388114,95.3710805 C425.493051,95.7585381 425.565699,96.1782839 425.646419,96.5415254 C425.646419,96.670678 425.710996,97.0904237 425.646419,96.5415254 C425.646419,96.6545339 425.646419,96.7675424 425.646419,96.8724788 C425.646419,97.155 425.694852,97.4294492 425.702924,97.6796822 C425.717687,98.2777692 425.696122,98.8762007 425.638347,99.4716737 C425.638347,99.8349153 425.638347,99.4716737 425.638347,99.5523941 C425.638347,99.6331144 425.581843,99.8994915 425.549555,100.069004 C425.476907,100.424174 425.388114,100.771271 425.283178,101.118369 C424.854101,102.500674 424.160505,103.786431 423.240953,104.904153 C419.834555,108.940169 414.620021,110.788665 409.752585,112.403072 C403.956864,114.316144 398.007775,115.631886 392.066758,117.020275 C386.05078,118.291305 380.119806,119.935802 374.308284,121.944216 C368.148432,124.212696 362.205014,127.030416 356.549809,130.363347 C347.607935,135.575629 339.272292,141.764417 331.696017,148.816017 C328.051771,152.110181 324.649991,155.663031 321.517182,159.446886 L321.379958,159.616398 C320.701334,160.337476 320.701334,161.462228 321.379958,162.183305 C322.090869,162.887098 323.235953,162.887098 323.946864,162.183305 C326.604869,158.93847 329.485472,155.882549 332.567797,153.037691 C339.83753,146.034362 347.861779,139.859156 356.493305,134.625381 C361.99948,131.214425 367.799428,128.302295 373.823962,125.923729 C379.749294,123.758775 385.817944,122.008307 391.986038,120.684979 C398.007775,119.296589 404.053729,117.972775 409.946314,116.083919 C415.322288,114.356504 421.04536,112.386928 425.089449,108.254047 C428.826801,104.427903 430.594576,98.5676059 428.673432,93.4499364 C428.58464,93.2319915 428.495847,93.0140466 428.398983,92.7961017 L426.833008,95.5244492 C431.676229,95.0885593 437.15714,94.2732839 439.627182,89.4623517 C442.008391,84.9274032 440.588219,79.3267752 436.333792,76.4744492 L435.421653,79.9131356 C440.321377,79.7436229 445.915297,78.4117373 449.466992,74.8681144 C452.04197,72.3173517 453.050975,68.571928 452.986398,65.0202331 C452.993517,62.2451216 451.979271,59.5644101 450.13697,57.4890254 C449.122227,56.3546448 447.848351,55.482317 446.423835,54.9463347 L445.939513,58.5141737 C454.253708,57.6504661 462.592119,57.0047034 470.882097,55.9069068 C474.522585,55.4306568 478.146928,54.8898305 481.730911,54.0745551 C484.438522,53.5317579 487.06478,52.6418688 489.54464,51.426928 C491.564913,50.4119033 493.139893,48.6874726 493.968114,46.5837076 C494.854853,44.6155293 494.643402,42.3263459 493.411144,40.5538983 C491.877458,38.4793856 489.375127,37.3977331 486.953517,36.67125 C483.46158,35.699229 479.870934,35.1251588 476.25,34.9599788 C466.951017,34.3384322 457.530953,34.9034746 448.23197,35.2263559 C437.003771,35.6057415 425.775572,36.0981356 414.547373,36.6147458 C410.199237,36.8192373 405.851102,37.0264195 401.502966,37.2362924 C399.355805,37.3412288 397.144068,37.3170127 394.996907,37.5591737 L394.690169,37.5591737 L396.304576,40.2875212 C399.258941,34.055911 403.771208,28.9866737 408.372267,23.9416525 C411.103854,21.1290732 413.649247,18.1414715 415.992267,14.997839 C417.756808,12.6667015 418.840898,9.89221277 419.124216,6.98230932 C419.322952,4.75579666 418.304471,2.59538221 416.460445,1.33188559 C414.353644,-0.0080720339 411.617225,0.242161017 409.300551,0.928283898 C405.668136,2.02608051 402.342458,4.25396186 399.186292,6.31233051 C389.587125,12.748905 380.331948,19.6842249 371.458856,27.0897458 C360.366929,36.0770645 349.748698,45.6337412 339.64697,55.72125 C333.019831,62.4048941 326.223178,69.0723941 318.385233,74.0205508 L318.086568,74.1981356 C316.052415,75.3524364 317.884767,78.4924576 319.918919,77.3381568 L319.902775,77.3543008 Z" id="Path" fill="#254BAD"></path>
                <path d="M419.560106,59.4908898 C428.390911,60.8227754 432.749809,62.5744068 439.522246,62.7197034 C439.998799,62.7553962 440.478006,62.7172774 440.942924,62.6066949 C441.83852,62.3688251 442.509502,61.625048 442.654195,60.7097669 C442.719523,59.793988 442.216379,58.9319128 441.386886,58.5383898" id="Path" fill="#00267C"></path>
                <path d="M445.939513,54.8898305 C438.876483,55.1562076 431.813453,55.4306568 424.750424,55.8019703 C423.087585,55.8826907 421.424746,55.963411 419.769979,56.1167797 C418.777651,56.1422364 417.979228,56.9406593 417.953771,57.9329873 C417.970875,58.9168379 418.761999,59.7115255 419.745763,59.7330508 C427.502987,59.0065678 435.357076,58.9258475 443.154661,58.6110381 L445.931441,58.5061017 C448.264258,58.4173093 448.272331,54.7848941 445.931441,54.8736864 L445.939513,54.8898305 Z" id="Path" fill="#254BAD"></path>
                <path d="M435.421653,76.2565042 C428.964025,76.2565042 422.417606,76.2565042 415.976123,76.9022669 C414.983795,76.9277237 414.185372,77.7261466 414.159915,78.7184746 C414.168683,79.7178843 414.976713,80.5259149 415.976123,80.5346822 C422.43375,79.9050636 428.955953,79.9292797 435.421653,79.8889195 C437.75447,79.8889195 437.762542,76.2484322 435.421653,76.2565042 Z" id="Path" fill="#254BAD"></path>
                <path d="M426.833008,91.924322 C425.646419,92.0454025 424.467903,92.2552754 423.297458,92.4490042 C418.938559,93.1754873 414.595805,94.0149788 410.253051,94.8706144 C409.293976,95.148702 408.731632,96.1408634 408.985742,97.1065678 C409.270944,98.0599961 410.257179,98.6189813 411.221695,98.3738771 C415.524089,97.5666737 419.826483,96.7029661 424.136949,95.9522669 C424.944153,95.8150424 425.751356,95.6858898 426.558559,95.5648093 C427.188178,95.4679449 426.082309,95.6213136 426.623136,95.5648093 L426.784576,95.5648093 C427.776904,95.5393526 428.575327,94.7409297 428.600784,93.7486017 C428.592017,92.749192 427.783986,91.9411613 426.784576,91.9323941 L426.833008,91.924322 Z" id="Path" fill="#254BAD"></path>
                <path d="M200.46089,301.393602 C190.386992,299.585466 184.139237,308.973242 180.280805,316.78697 C176.511165,324.382754 173.096695,332.172267 169.633792,339.921419 C165.081165,350.092182 160.520466,360.287161 155.604597,370.304555 C158.645493,368.827046 161.589623,367.158166 164.419258,365.307966 C168.63286,356.356081 172.636589,347.307331 176.680678,338.290869 C180.151653,330.574004 183.372394,322.493898 187.72322,315.212924 C189.773517,311.782309 192.687521,307.633284 196.973771,307.011737 C200.654619,306.470911 204.569555,308.957097 207.297903,311.112331 C209.77485,313.11004 212.070818,315.322272 214.159131,317.723326 C215.426441,316.318792 216.709894,314.898114 218.017564,313.437076 C213.368072,308.254831 207.515847,302.701271 200.46089,301.393602 Z" id="Path" fill="#FFFFFF"></path>
                <path d="M254.680742,139.533178 C258.103863,142.309487 263.036217,142.189769 266.320614,139.250657 C268.822945,136.829047 269.452564,133.115911 269.59786,129.814449 C269.848093,124.164025 269.59786,118.457097 269.452564,112.814746 L269.452564,112.273919 L263.737564,116.802331 C263.785996,119.159364 263.826356,121.516398 263.8425,123.86536 C263.973141,126.403078 263.921887,128.946893 263.689131,131.477288 C263.608271,132.701527 263.19831,133.881211 262.502542,134.891758 C261.463741,135.831446 259.964264,136.06018 258.692542,135.472945 C257.801503,134.715489 256.955205,133.906925 256.157924,133.051335 C255.108559,132.098835 254.072648,131.130191 253.050191,130.145403 C252.146123,129.273623 251.250127,128.38839 250.362203,127.489703 L245.817648,131.154407 C248.618644,134.076483 251.581081,136.901695 254.680742,139.533178 Z" id="Path" fill="#FFFFFF"></path>
                <path d="M311.249555,173.629449 C309.178424,173.837545 307.213836,174.648639 305.599131,175.962267 C303.702203,177.504025 302.927288,179.417097 302.047436,181.612691 C300.263517,186.068453 295.549449,188.877521 292.788814,192.671377 C289.495424,197.240148 289.826377,201.986504 291.343919,207.160678 C292.861462,212.334852 292.441716,217.283008 291.045254,222.537903 C290.383347,225.048305 289.592288,227.534492 288.865805,230.02875 C291.90089,226.347903 294.847182,222.763919 297.688538,219.292945 C298.230985,216.531784 298.361554,213.705515 298.075996,210.906102 C297.543242,206.21625 294.330572,201.219661 297.026631,196.763898 C299.488602,192.663305 303.92822,190.177119 306.333686,186.020021 C307.996525,183.162521 308.561568,178.690614 312.985042,179.417097 C314.768962,179.707691 315.79411,181.088008 316.74661,182.492542 C318.204309,184.72886 319.444969,187.099359 320.451674,189.571716 L320.935996,190.709873 C322.429322,188.861377 323.793496,187.174322 325.028517,185.632564 C324.130482,183.519288 323.05013,181.488227 321.799703,179.562394 C319.289301,175.873475 315.947479,173.128983 311.249555,173.629449 Z" id="Path" fill="#FFFFFF"></path>
                <path d="M255.407225,230.698729 C254.965953,243.371822 254.406292,256.042225 253.728242,268.709936 C253.655593,269.961102 253.591017,271.204195 253.518369,272.45536 C255.590191,270.012225 257.659322,267.561017 259.725763,265.101737 C260.000212,259.720381 260.255826,254.339025 260.492606,248.957669 C261.068411,236.042415 261.515064,223.100254 261.832564,210.131186 C261.961716,204.916653 262.80928,198.830339 259.281801,194.431081 C256.456589,190.93589 251.815169,189.991462 247.536992,190.491928 C242.419322,191.089258 238.213792,193.648093 233.636949,195.811398 C229.665508,197.692182 224.911081,198.959492 221.117225,196.029343 C218.106356,193.696525 216.61303,189.749301 215.579809,186.221822 C214.328644,181.911356 213.75553,177.471737 212.948326,173.064407 C212.162531,168.801878 211.157576,164.58268 209.937458,160.423602 L205.029661,164.459619 C206.070953,168.277691 206.942733,172.152267 207.60464,176.051059 C208.20835,180.348103 209.106458,184.598612 210.292627,188.772585 C212.891822,196.957627 218.67947,204.601843 228.228686,203.504047 C233.709597,202.874428 238.141144,199.661758 243.113517,197.579174 C246.237394,196.271504 251.032182,195.084915 254.018835,197.320869 C255.552521,198.475169 255.996483,200.396314 256.117564,202.212521 C256.335508,205.360614 256.069131,208.573284 255.988411,211.721377 C255.82697,218.022945 255.633242,224.348729 255.407225,230.698729 Z" id="Path" fill="#FFFFFF"></path>
                <path d="M48.4322034,348.711864 C47.8940678,356.321102 47.3559322,363.930339 46.8177966,371.539576 C48.7550847,371.91089 50.6681568,372.257987 52.5489407,372.597013 L53.9534746,352.667161 L56.6333898,314.728602 C57.2065042,306.591992 58.8370551,294.871398 51.1766949,289.269407 C46.8177966,286.080953 41.43375,287.186822 37.1636441,289.915169 C35.7994703,290.778877 34.5644492,291.529576 32.869322,291.319703 C31.1772786,291.088515 29.7010946,290.054284 28.9059534,288.542924 C27.9534534,286.66214 28.5104237,284.676419 28.9624576,282.722987 C29.6399694,279.833651 30.4972738,276.98945 31.5293644,274.206992 C33.6926695,268.265975 36.4613771,262.567119 39.1251483,256.844047 L58.1186441,216.120636 L52.3552119,214.804894 L33.4505085,255.31036 C30.8997458,260.783199 28.3086229,266.256038 26.185678,271.922606 C25.134365,274.701304 24.247597,277.5395 23.5299788,280.422458 C22.9245763,282.924788 22.3030297,285.491695 22.7227754,288.074746 C23.4718505,292.161687 26.4501353,295.48302 30.4315678,296.671462 C32.4279258,297.264956 34.5538115,297.264956 36.5501695,296.671462 C38.8749153,295.961123 40.5861864,294.249852 42.870572,293.442648 C52.2099153,290.133114 51.443072,305.784788 51.0959746,310.765233 C50.2134322,323.400657 49.3255085,336.049534 48.4322034,348.711864 Z" id="Path" fill="#FFFFFF"></path>
                <path d="M180.757055,213.424576 C180.660191,226.302161 180.148962,239.168983 179.223369,252.025042 C178.755191,258.568771 178.176695,265.1125 177.487881,271.656229 C177.108496,275.2725 175.768538,278.372161 172.36214,280.067288 C169.5304,281.495938 166.154916,281.324095 163.482903,279.615254 C161.569831,278.372161 160.092648,276.386441 158.639682,274.642881 C157.092959,272.664764 155.059985,271.121261 152.739025,270.162903 C148.583903,268.526457 143.892358,269.014282 140.162797,271.470572 C135.820042,274.40072 132.429788,279.607182 130.129258,284.224386 C128.248475,287.985953 127.320191,293.224703 123.187309,295.283072 C119.821271,296.953983 116.648962,295.016695 113.290996,294.516229 C105.654852,293.386144 98.817839,297.938771 96.4204449,305.147097 C90.1242585,324.051801 84.0702331,343.037225 77.9031992,361.982288 C76.3856568,366.647924 74.8842585,371.321631 73.2537076,375.946907 C75.255572,376.229428 77.2009322,376.479661 79.1140042,376.75411 C80.3005932,373.355784 81.4226059,369.933242 82.5365466,366.526843 C84.93125,359.224343 87.3125,351.940678 89.6802966,344.675847 L100.335381,311.98411 C101.069936,309.715869 101.610763,307.14089 102.756992,305.017945 C104.647486,301.58738 108.45938,299.679827 112.338496,300.223157 C114.388792,300.505678 116.277648,301.409746 118.352161,301.668051 C120.194161,301.923708 122.069256,301.791736 123.857288,301.280593 C128.216186,299.948708 131.283559,296.300148 133.075551,292.239915 C135.198496,287.396695 137.16,282.949004 140.703623,278.929131 C143.39161,275.885975 146.959449,273.867966 151.019682,275.700318 C153.166843,276.677034 154.409936,278.622394 155.903263,280.341737 C157.338172,282.124049 159.052913,283.661591 160.980572,284.894364 C168.023204,288.805785 176.896805,286.483355 181.120297,279.623326 C183.75178,275.248284 183.541907,269.533284 184.010085,264.617415 C184.591271,258.337373 185.075593,252.049258 185.463051,245.753072 C186.237966,233.160699 186.617352,220.552182 186.601208,207.927521 C186.601208,198.701186 186.237966,189.499068 185.866653,180.288877 L180.288877,184.849576 C180.652119,194.382648 180.813559,203.899576 180.757055,213.424576 Z" id="Path" fill="#FFFFFF"></path>
                <path d="M128.482564,228.156038 C188.578856,193.252564 291.440784,109.279195 314.357288,90.4067797 C315.164492,82.7706356 316.827331,77.3785169 319.135932,75.4089407 C312.331208,79.1947246 279.607182,101.191017 128.482564,228.156038 Z" id="Path" fill="#FFE8BB"></path>
                <path d="M320.726123,74.6098093 C320.769054,74.605265 320.812344,74.605265 320.855275,74.6098093 L320.726123,74.6098093 Z" id="Path" fill="#FFE8BB"></path>
                <path d="M319.135932,75.3766525 C319.647539,75.0575099 320.188061,74.7872493 320.750339,74.5694492 C320.148485,74.6857417 319.590078,74.9649451 319.135932,75.3766525 Z" id="Path" fill="#FFE8BB"></path>
                <path d="M98.6321822,253.40536 C98.6321822,253.40536 62.5905508,222.303814 27.9130932,209.210975 L123.574767,232.159767" id="Path" fill="#00267C"></path>
                <path d="M11.7044492,207.362479 L36.5259534,213.012903 L85.9348729,224.31375 L121.726271,232.506864 C122.533475,232.684449 123.340678,232.942754 124.147881,233.055763 C124.706417,233.176781 125.290142,233.062955 125.762288,232.740953 C127.530338,231.434139 129.217779,230.021648 130.815381,228.511208 L140.768199,220.156653 C152.607182,210.228051 164.467691,200.326356 176.349725,190.451568 C195.146801,174.845636 214.019216,159.30697 232.96697,143.835572 C246.135148,133.132055 259.370593,122.509258 272.673305,111.967182 C281.237733,105.202818 289.511568,98.7613347 298.205148,92.2229873 C303.048369,88.5582839 307.972309,84.9581568 312.985042,81.4710381 C315.212924,79.9292797 317.465021,78.3794492 319.822055,77.0314195 C320.274089,76.7811864 320.750339,76.5632415 321.202373,76.3130085 C321.654407,76.0627754 320.629258,76.4663771 321.113581,76.3130085 C321.166932,76.2857813 321.224076,76.2667335 321.283093,76.2565042 C321.501038,76.2565042 320.661547,76.3210805 320.847203,76.3210805 L320.362881,72.7532415 C315.858686,73.3990042 314.325,80.018072 313.566229,83.5697669 C311.806525,91.8920339 311.709661,100.601758 312.000254,109.069322 C312.381153,119.907655 313.584657,130.701408 315.600381,141.357458 C317.214788,149.889597 319.265085,158.478242 322.663411,166.493771 C324.277818,170.303771 327.506631,178.125572 332.842246,177.633178 C335.150847,177.423305 335.175064,173.782818 332.842246,174.000763 C332.702792,174.016841 332.561953,174.016841 332.4225,174.000763 C332.059258,173.960403 332.688877,174.057267 332.325636,174.000763 C331.817097,173.903898 332.083475,174.000763 331.671801,173.734386 C331.021836,173.316079 330.446204,172.792281 329.968602,172.184555 C328.468984,170.256027 327.243837,168.128998 326.328114,165.864153 C323.147733,158.752691 321.250805,150.995466 319.692903,143.39161 C317.69273,133.557992 316.405924,123.592666 315.842542,113.573517 C315.35822,105.202818 315.245212,96.6222458 316.399513,88.3322669 C316.723768,85.2314617 317.462208,82.1881125 318.595106,79.2835169 C318.938775,78.4669402 319.392305,77.701099 319.943136,77.0072034 C320.128029,76.7844728 320.345782,76.5912167 320.588898,76.434089 C320.944068,76.2242161 320.492034,76.434089 320.766483,76.3372246 C320.946694,76.2733709 321.133531,76.2300462 321.323453,76.208072 C323.381822,75.9174788 322.840996,72.632161 320.847203,72.6483051 C320.378271,72.675791 319.920984,72.805264 319.507246,73.0276907 C318.858585,73.3270953 318.2279,73.6639998 317.61839,74.0366949 C316.133136,74.9004025 314.704386,75.8448305 313.275636,76.7973305 C310.684513,78.5408898 308.13375,80.3570975 305.599131,82.1894492 C301.568496,85.1007627 297.57553,88.0605085 293.620233,91.0686864 C287.781462,95.5029237 281.983051,99.9802119 276.225,104.500551 C268.400508,110.619153 260.624449,116.786186 252.896822,123.001653 C242.715297,131.159788 232.574131,139.374428 222.473326,147.645572 C209.611886,158.236081 196.801568,168.83197 184.042373,179.433242 C168.108178,192.639089 152.214343,205.893369 136.360869,219.196081 L123.445614,230.06911 L125.21339,229.609004 L114.009407,227.042097 L87.1053178,220.883136 L54.7364619,213.473008 L26.5973517,207.015381 C22.0447246,205.974089 17.5001695,204.779428 12.9152542,203.891504 L12.7215254,203.843072 C10.4452119,203.326462 9.49271186,206.821653 11.7609534,207.346335 L11.7044492,207.362479 Z" id="Path" fill="#254BAD"></path>
                <path d="M331.566864,174.646525 C328.429534,178.574915 325.276059,182.495233 322.106441,186.407479 C314.120508,196.303792 306.104979,206.170508 298.059852,216.007627 C287.29714,229.186568 276.451017,242.309004 265.521483,255.374936 C254.129153,268.989767 242.626504,282.510424 231.013538,295.936907 C221.06072,307.374979 211.01911,318.740403 200.549682,329.702225 C193.066907,337.548242 185.584131,345.483051 177.584746,352.747881 C170.707373,358.971419 163.361822,364.524979 154.983051,368.633644 C145.9331,372.899403 136.208658,375.554504 126.24661,376.479661 C112.120551,377.956843 97.7926907,377.068919 83.7150636,375.478729 C62.8004237,373.113623 42.0956568,369.021102 21.5604025,364.549195 C15.1727331,363.13928 8.81197034,361.697076 2.47811441,360.222585 C0.201800847,359.689831 -0.750699153,363.193093 1.50947034,363.725847 C24.1838136,369.01303 46.9953814,373.928898 70.0410381,377.303008 C85.5958475,379.579322 101.384746,381.282521 117.133284,380.709407 C128.159682,380.313877 139.258729,378.723686 149.62322,374.824894 C158.429242,371.402166 166.633708,366.59829 173.928114,360.593898 C182.000148,354.136271 189.224619,346.653496 196.408729,339.227225 C206.0575,329.266335 215.474873,319.090191 224.660847,308.698792 C236.295339,295.55214 247.754936,282.225212 259.03964,268.718008 C270.324343,255.210805 281.595593,241.65786 292.85339,228.059174 C301.888686,217.075826 310.875551,206.0575 319.813983,195.004195 C324.398898,189.337627 328.973051,183.662987 333.536441,177.980275 L334.141843,177.173072 C335.586737,175.364936 333.035975,172.781886 331.574936,174.606165 L331.566864,174.646525 Z" id="Path" fill="#254BAD"></path>
                <path d="M123.752352,229.786589 C116.542288,235.04605 109.632562,240.705343 103.055657,246.73786 C99.8914195,249.619576 96.8079025,252.582013 93.8373941,255.657458 C92.2229873,257.336441 94.781822,259.911419 96.4043008,258.224364 C104.797875,249.64067 113.841171,241.71733 123.453686,234.524873 C124.164025,233.992119 124.866292,233.459364 125.584703,232.910466 C126.43038,232.388408 126.717978,231.294826 126.238538,230.42428 C125.724569,229.567753 124.621194,229.27758 123.752352,229.770445 L123.752352,229.786589 Z" id="Path" fill="#254BAD"></path>
                <path d="M352.433072,158.050424 C340.938496,158.050424 329.702225,128.256547 325.181886,111.700805 C320.443602,94.3136441 314.688242,60.5483263 326.74786,57.2468644 C329.435847,56.5123093 332.261059,57.4486653 335.158919,60.0236441 L330.210763,64.6489195 C329.096822,63.7690678 328.53178,63.7690678 328.53178,63.7690678 C326.247394,64.8345763 323.688559,80.6638347 331.704089,109.957246 C339.719619,139.250657 349.914597,151.617013 352.449216,151.342564 C353.062691,151.05197 355.20178,147.379195 354.628665,135.892691 L361.086292,132.123051 C362.498898,147.960381 360.141864,156.21 354.176631,157.840551 C353.607527,157.988596 353.021052,158.05919 352.433072,158.050424 L352.433072,158.050424 Z" id="Path" fill="#F8C44D"></path>
                <path d="M3.52747881,335.732034 C3.52747881,335.732034 3.29338983,358.890699 3.52747881,362.369746 C135.836186,393.091907 155.330148,378.957775 193.801462,339.348305 C155.580381,370.304555 120.45089,386.23875 3.52747881,335.732034 Z" id="Path" fill="#00267C"></path>
                <path d="M297.050847,88.7923729 C295.176171,93.4922107 293.822736,98.383523 293.014831,103.378538 C290.8148,115.706074 290.670241,128.312736 292.587013,140.687479 C294.034515,150.100982 296.58115,159.312217 300.174725,168.132394 C300.463396,169.083052 301.446757,169.640409 302.410678,169.399703 C303.368642,169.125232 303.931637,168.135508 303.677987,167.171822 C297.830285,152.941617 294.837987,137.700367 294.871398,122.31553 C294.86684,113.05503 296.168497,103.840174 298.737903,94.9432627 C299.085,93.7728178 299.464386,92.5943008 299.876059,91.44 C299.989068,91.1413347 300.110148,90.8345975 300.223157,90.5278602 C300.336165,90.2211229 300.546038,89.7206568 300.174725,90.6247246 C300.651294,89.755685 300.368209,88.665807 299.528962,88.1385381 C298.662548,87.6464514 297.561716,87.9368989 297.050847,88.7923729 Z" id="Path" fill="#254BAD"></path>
                <path d="M498.141356,33.5231568 L503.904788,25.6529237 L504.711992,24.530911 C505.213421,23.6657324 504.921148,22.5579814 504.058157,22.0527966 C503.189117,21.5762268 502.099239,21.859312 501.57197,22.6985593 L495.808538,30.5687924 L495.001335,31.6908051 C494.503857,32.5590416 494.794925,33.6658184 495.655169,34.1769915 C496.525716,34.6564317 497.619298,34.3688337 498.141356,33.5231568 L498.141356,33.5231568 Z" id="Path" fill="#254BAD"></path>
                <path d="M502.411462,42.7091314 L510.112182,41.2238771 L511.218051,41.0140042 C512.196455,40.7396546 512.767377,39.72428 512.493432,38.7457627 C512.208229,37.7923344 511.221994,37.2333492 510.257479,37.4784534 L502.564831,38.9637076 L501.45089,39.1816525 C500.487115,39.4487004 499.920581,40.444647 500.183581,41.4095339 C500.465221,42.3618356 501.448979,42.9214367 502.411462,42.6768432 L502.411462,42.7091314 Z" id="Path" fill="#254BAD"></path>
                <path d="M500.320805,56.2782203 L507.488771,61.2828814 L508.521992,61.9932203 C509.387501,62.4967708 510.497123,62.2085574 511.008178,61.3474576 C511.483275,60.4763784 511.196501,59.3859296 510.354343,58.8612712 L503.178305,53.8566102 L502.153157,53.1381992 C501.285545,52.6360368 500.175295,52.9280183 499.66697,53.7920339 C499.18753,54.6625801 499.475128,55.7561627 500.320805,56.2782203 L500.320805,56.2782203 Z" id="Path" fill="#254BAD"></path>
            </g>
        </g>
    </g>
</svg>